# xmcd CD database file
#
# Track frame offsets:
#	150
#	29526
#	57215
#	76666
#	98596
#	126330
#	137763
#	157274
#	180223
#	210399
#	244081
#	261926
#	280413
#	296813
#	330768
#
# Disc length: 4721 seconds
#
# Revision: 0
# Processed by: cddbd v1.5.2PL0 Copyright (c) Steve Scherf et al.
# Submitted via: CDex 1.51
#
DISCID=d1126f0f
DTITLE=Marc Moulin - Best Of
DYEAR=2009
DGENRE=Jazz
TTITLE0=Into the dark
TTITLE1=Silver (who stole the groove ?)
TTITLE2=Balek
TTITLE3=I am you
TTITLE4=Tenor (long fall mix)
TTITLE5=Humpty dumpty
TTITLE6=Comme à la radio
TTITLE7=Music is my husband
TTITLE8=NW
TTITLE9=Organ
TTITLE10=Promised land
TTITLE11=Le grand voyage
TTITLE12=Welcome to the club
TTITLE13=Stomp
TTITLE14=Tohu-bohu part 1
EXTD=YEAR: 2009
EXTT0=
EXTT1=
EXTT2=
EXTT3=
EXTT4=
EXTT5=
EXTT6=
EXTT7=
EXTT8=
EXTT9=
EXTT10=
EXTT11=
EXTT12=
EXTT13=
EXTT14=
PLAYORDER=
